<svg width="275" height="329" viewBox="0 0 275 329" fill="none" xmlns="http://www.w3.org/2000/svg">
<path d="M70 108.5L76.5099 103.85L66.851 90.3277L62.3051 106.312L70 108.5ZM165 241.5L158.49 246.15L167.016 258.086L172.434 244.455L165 241.5ZM261 0L188.527 57.2798L274.369 91.4035L261 0ZM15.6948 328.688L77.6948 110.688L62.3051 106.312L0.30515 324.312L15.6948 328.688ZM63.4901 113.15L158.49 246.15L171.51 236.85L76.5099 103.85L63.4901 113.15ZM172.434 244.455L241.837 69.8627L226.969 63.9523L157.566 238.545L172.434 244.455Z" fill="#F23B01"/>
</svg>
